<svg width="55" height="55" viewBox="0 0 55 55" fill="none" xmlns="http://www.w3.org/2000/svg">
<rect width="55" height="55" rx="27.5" fill="#2C3039"/>
<path d="M28.3384 41.8108C24.65 41.8108 20.9616 41.8252 17.2732 41.8071C13.2315 41.7878 13.024 41.5985 13.0132 37.6845C12.9951 31.0652 13.024 24.446 13.0011 17.8254C12.9951 16.2502 12.9541 14.5013 14.908 14.2673C17.0598 14.0092 19.5577 13.3326 20.9146 16.0416C22.5646 19.3367 24.1724 22.6524 25.8561 25.9295C26.3989 26.9861 26.8319 28.261 28.4373 28.1802C29.9269 28.1054 30.507 27.0174 31.0643 25.9066C32.6744 22.6983 34.3534 19.5213 35.843 16.2575C37.1372 13.4218 39.547 14.0273 41.7145 14.248C43.8361 14.4639 43.871 16.2297 43.8638 17.9268C43.8349 24.6401 43.859 31.3547 43.8457 38.0681C43.8397 41.2499 43.2656 41.7915 39.9704 41.7975C36.0927 41.8047 32.2161 41.7999 28.3384 41.7999V41.8095V41.8108Z" fill="url(#paint0_linear_27_3277)"/>
<defs>
<linearGradient id="paint0_linear_27_3277" x1="12.3353" y1="30.8144" x2="238.916" y2="-9.31995" gradientUnits="userSpaceOnUse">
<stop stop-color="#AE3FFF"/>
<stop offset="0.04" stop-color="#B53DEC"/>
<stop offset="0.12" stop-color="#C838BC"/>
<stop offset="0.23" stop-color="#E53070"/>
<stop offset="0.31" stop-color="#FF2A30"/>
<stop offset="0.37" stop-color="#D73158"/>
<stop offset="0.51" stop-color="#7344BD"/>
<stop offset="0.59" stop-color="#3351FF"/>
<stop offset="1" stop-color="#9186EA"/>
</linearGradient>
</defs>
</svg>
